<?xml version="1.0" encoding="utf-8"?>
<!-- Generator: Adobe Illustrator 24.1.3, SVG Export Plug-In . SVG Version: 6.00 Build 0)  -->
<svg version="1.1" id="Layer_1" xmlns="http://www.w3.org/2000/svg" xmlns:xlink="http://www.w3.org/1999/xlink" x="0px" y="0px"
	 viewBox="0 0 307 71.88" style="enable-background:new 0 0 307 71.88;" xml:space="preserve">
<style type="text/css">
	.st0{fill:none;stroke:#000000;stroke-width:2;stroke-miterlimit:10;}
	.st1{fill:none;stroke:#000000;stroke-width:0.85;stroke-miterlimit:10;}
</style>
<g>
	<path d="M37.01,31.86c2.38,2.21,3.56,4.94,3.56,8.21c0,2.5-0.72,4.75-2.16,6.77c-1.44,2.02-3.43,3.61-5.98,4.79
		c-2.54,1.18-5.38,1.76-8.5,1.76c-1.34,0-2.88-0.07-4.61-0.22c-0.67-0.05-1.5-0.09-2.48-0.14c-0.98-0.05-2.08-0.07-3.28-0.07
		l-5.26,0.07c-0.96,0.05-2.26,0.07-3.89,0.07c-0.14,0-0.22-0.14-0.22-0.43c0-0.29,0.07-0.43,0.22-0.43c1.39,0,2.45-0.13,3.17-0.4
		c0.72-0.26,1.24-0.74,1.55-1.44c0.31-0.7,0.47-1.74,0.47-3.13V13.94c0-2.02-0.34-3.35-1.01-4C7.94,9.29,6.57,8.97,4.5,8.97
		c-0.1,0-0.14-0.14-0.14-0.43c0-0.29,0.05-0.43,0.14-0.43l3.82,0.07c2.21,0.1,3.96,0.14,5.26,0.14c1.34,0,2.74-0.07,4.18-0.22
		c0.48-0.05,1.2-0.1,2.16-0.14c0.96-0.05,1.8-0.07,2.52-0.07c4.37,0,7.75,0.79,10.15,2.38c2.4,1.58,3.6,3.89,3.6,6.91
		c0,2.3-0.76,4.39-2.27,6.26s-3.68,3.34-6.52,4.39C31.43,28.31,34.64,29.66,37.01,31.86z M18.47,10.44
		c-0.53,0.65-0.79,1.86-0.79,3.64v13.68l2.88,0.07c2.5,0,4.42-0.94,5.76-2.81c1.34-1.87,2.02-4.27,2.02-7.2
		c0-2.74-0.6-4.81-1.8-6.23c-1.2-1.42-2.93-2.12-5.18-2.12C19.96,9.47,19,9.8,18.47,10.44z M32.15,41.8c0-3.7-0.89-6.63-2.66-8.78
		c-1.78-2.16-4.46-3.24-8.06-3.24c-1.39,0-2.64,0.05-3.74,0.14v17.35c0,1.58,0.31,2.7,0.94,3.35c0.62,0.65,1.99,0.97,4.1,0.97
		C29.01,51.59,32.15,48.33,32.15,41.8z"/>
	<path d="M105.02,52.67c0,0.29-0.05,0.43-0.14,0.43c-1.63,0-2.93-0.02-3.89-0.07l-5.33-0.07l-5.4,0.07
		c-0.91,0.05-2.16,0.07-3.74,0.07c-0.14,0-0.22-0.14-0.22-0.43c0-0.29,0.07-0.43,0.22-0.43c2.02,0,3.38-0.24,4.1-0.72
		c0.72-0.48,1.08-1.49,1.08-3.02l-0.07-1.22l-1.51-29.45L75.28,52.6c-0.1,0.19-0.29,0.29-0.58,0.29s-0.48-0.1-0.58-0.29L55.91,17.97
		l-0.58,25.99c-0.05,2.59,0.47,4.62,1.55,6.08c1.08,1.46,2.6,2.2,4.57,2.2c0.14,0,0.22,0.14,0.22,0.43c0,0.29-0.07,0.43-0.22,0.43
		c-1.3,0-2.3-0.02-3.02-0.07l-3.96-0.07l-4.54,0.07c-0.77,0.05-1.8,0.07-3.1,0.07c-0.14,0-0.22-0.14-0.22-0.43
		c0-0.29,0.07-0.43,0.22-0.43c1.97,0,3.53-0.74,4.68-2.23c1.15-1.49,1.75-3.5,1.8-6.05l0.65-29.81l-0.07-0.07
		c-0.96-1.78-1.96-3.07-2.99-3.89c-1.03-0.82-2.22-1.22-3.56-1.22c-0.14,0-0.22-0.14-0.22-0.43c0-0.29,0.07-0.43,0.22-0.43
		l3.38,0.07c0.67,0.05,1.54,0.07,2.59,0.07l3.82-0.07c0.43-0.05,0.98-0.07,1.66-0.07c0.62,0,1.1,0.22,1.44,0.65
		c0.34,0.43,0.96,1.46,1.87,3.1L77.8,41.3L91.48,9.9c0.29-0.67,0.59-1.14,0.9-1.4c0.31-0.26,0.73-0.4,1.26-0.4
		c0.43,0,0.92,0.02,1.48,0.07c0.55,0.05,1.19,0.07,1.91,0.07l4.25-0.07c0.67-0.05,1.63-0.07,2.88-0.07c0.14,0,0.22,0.14,0.22,0.43
		c0,0.29-0.07,0.43-0.22,0.43c-2.26,0-3.89,0.46-4.9,1.37c-1.01,0.91-1.46,2.33-1.37,4.25l1.73,32.69c0.1,1.49,0.28,2.57,0.54,3.24
		c0.26,0.67,0.74,1.13,1.44,1.37c0.69,0.24,1.79,0.36,3.28,0.36C104.97,52.24,105.02,52.38,105.02,52.67z"/>
	<path d="M176.8,8.54c0,0.29-0.05,0.43-0.14,0.43c-1.92,0-3.43,0.76-4.54,2.27c-1.1,1.51-1.66,3.54-1.66,6.08v36.86
		c0,0.14-0.11,0.24-0.32,0.29c-0.22,0.05-0.37,0.02-0.47-0.07L135.9,15.95v28.01c0,2.54,0.53,4.56,1.58,6.05
		c1.06,1.49,2.52,2.23,4.39,2.23c0.1,0,0.14,0.14,0.14,0.43c0,0.29-0.05,0.43-0.14,0.43c-1.34,0-2.38-0.02-3.1-0.07l-3.89-0.07
		l-4.46,0.07c-0.82,0.05-1.99,0.07-3.53,0.07c-0.14,0-0.22-0.14-0.22-0.43c0-0.29,0.07-0.43,0.22-0.43c2.11,0,3.78-0.74,5-2.23
		c1.22-1.49,1.84-3.5,1.84-6.05V13.5c-1.58-1.73-2.94-2.92-4.07-3.56c-1.13-0.65-2.29-0.97-3.49-0.97c-0.1,0-0.14-0.14-0.14-0.43
		c0-0.29,0.05-0.43,0.14-0.43l3.02,0.07c0.62,0.05,1.54,0.07,2.74,0.07l5.47-0.07c0.67-0.05,1.49-0.07,2.45-0.07
		c0.38,0,0.67,0.1,0.86,0.29c0.19,0.19,0.53,0.6,1.01,1.22c0.82,1.1,1.39,1.85,1.73,2.23l24.91,28.73V17.32
		c0-2.59-0.53-4.63-1.58-6.12c-1.06-1.49-2.52-2.23-4.39-2.23c-0.1,0-0.14-0.14-0.14-0.43c0-0.29,0.05-0.43,0.14-0.43l3.1,0.07
		c1.54,0.1,2.83,0.14,3.89,0.14c0.96,0,2.3-0.05,4.03-0.14l3.24-0.07C176.75,8.1,176.8,8.25,176.8,8.54z"/>
	<path d="M208.55,43.31c0.24,0,0.36,0.07,0.36,0.22c-0.34,3.46-0.5,6.29-0.5,8.5c0,0.38-0.07,0.66-0.22,0.83
		c-0.14,0.17-0.43,0.25-0.86,0.25h-27.07c-0.1,0-0.14-0.14-0.14-0.43c0-0.29,0.05-0.43,0.14-0.43c1.39,0,2.4-0.12,3.02-0.36
		c0.62-0.24,1.06-0.71,1.3-1.4c0.24-0.7,0.36-1.76,0.36-3.2V25.24c0-1.44-0.12-2.5-0.36-3.17c-0.24-0.67-0.68-1.14-1.33-1.4
		c-0.65-0.26-1.64-0.4-2.99-0.4c-0.1,0-0.14-0.14-0.14-0.43c0-0.29,0.05-0.43,0.14-0.43h25.78c0.48,0,0.72,0.19,0.72,0.58l0.07,4.46
		c0.05,0.91,0.07,2.06,0.07,3.46c0,0.14-0.13,0.22-0.4,0.22c-0.26,0-0.42-0.07-0.47-0.22c-0.91-2.11-2.3-3.9-4.18-5.36
		c-1.87-1.46-3.77-2.2-5.69-2.2h-0.5c-1.06,0-1.84,0.13-2.34,0.4c-0.5,0.26-0.84,0.73-1.01,1.4c-0.17,0.67-0.25,1.73-0.25,3.17v9.72
		c3.65-0.05,6.34-0.19,8.06-0.43c1.73-0.24,2.71-0.36,2.95-0.36c0.34,0,0.5,0.53,0.5,1.58c0,0.48-0.05,0.91-0.14,1.3
		c-0.1,0.38-0.22,0.58-0.36,0.58c-0.29,0-1.3-0.12-3.02-0.36c-1.73-0.24-4.39-0.41-7.99-0.5v10.15c0,1.44,0.08,2.5,0.25,3.17
		c0.17,0.67,0.5,1.14,1.01,1.4s1.28,0.4,2.34,0.4h0.79c2.26,0,4.49-0.8,6.7-2.41c2.21-1.61,3.84-3.61,4.9-6.01
		C208.14,43.38,208.31,43.31,208.55,43.31z"/>
	<path d="M266.15,19.84c0,0.29-0.05,0.43-0.14,0.43c-1.73,0-3.22,0.64-4.46,1.91c-1.25,1.27-2.47,3.35-3.67,6.23l-9.58,24.63
		c-0.05,0.19-0.31,0.29-0.79,0.29c-0.48,0-0.74-0.1-0.79-0.29l-7.49-15.63l-6.77,15.63c-0.05,0.19-0.31,0.29-0.79,0.29
		c-0.48,0-0.74-0.1-0.79-0.29l-13.39-27.65c-0.96-2.02-1.8-3.37-2.52-4.07c-0.72-0.7-1.7-1.04-2.95-1.04
		c-0.14,0-0.22-0.14-0.22-0.43c0-0.29,0.07-0.43,0.22-0.43c0.67,0,1.77,0.05,3.31,0.14l3.17,0.07c1.68,0,3.38-0.05,5.11-0.14
		c0.48-0.05,1.06-0.07,1.73-0.07c0.1,0,0.14,0.14,0.14,0.43c0,0.29-0.05,0.43-0.14,0.43c-0.53,0-0.91,0.07-1.15,0.22
		c-0.24,0.14-0.36,0.41-0.36,0.79c0,0.53,0.41,1.66,1.22,3.38l9.58,19.3l3.6-8.5l-4.82-10.08c-0.96-2.06-1.73-3.43-2.3-4.1
		c-0.58-0.67-1.22-1.01-1.94-1.01c-0.1,0-0.14-0.14-0.14-0.43c0-0.29,0.05-0.43,0.14-0.43l2.02,0.07c1.63,0.1,2.93,0.14,3.89,0.14
		c0.62,0,1.66-0.05,3.1-0.14l2.09-0.07c0.1,0,0.14,0.14,0.14,0.43c0,0.29-0.05,0.43-0.14,0.43c-0.63,0-0.94,0.19-0.94,0.58
		c0,0.29,0.14,0.77,0.43,1.44c0.29,0.67,0.67,1.46,1.15,2.38l1.94,3.96l0.86-2.3c0.62-1.82,0.94-3.19,0.94-4.1
		c0-1.3-0.46-1.94-1.37-1.94c-0.14,0-0.22-0.14-0.22-0.43c0-0.29,0.07-0.43,0.22-0.43c0.43,0,1.1,0.04,2.02,0.11
		c0.91,0.07,1.82,0.11,2.74,0.11c0.82,0,1.61-0.05,2.38-0.14l2.09-0.07c0.14,0,0.21,0.14,0.21,0.43c0,0.29-0.07,0.43-0.21,0.43
		c-1.34,0-2.42,0.19-3.24,0.58c-0.82,0.38-1.53,1.02-2.13,1.91c-0.6,0.89-1.31,2.22-2.12,4l-1.37,3.38l6.62,13.46l5.62-15.26
		c0.77-2.02,1.15-3.74,1.15-5.18c0-1.92-0.72-2.88-2.16-2.88c-0.1,0-0.14-0.14-0.14-0.43c0-0.29,0.05-0.43,0.14-0.43l1.94,0.07
		c1.06,0.1,1.99,0.14,2.81,0.14c0.96,0,2.06-0.05,3.31-0.14l3.1-0.07C266.1,19.41,266.15,19.55,266.15,19.84z"/>
	<path d="M277.56,28.23c0.74,0.98,1.66,1.82,2.74,2.52c1.08,0.7,2.56,1.53,4.43,2.48c2.16,1.15,3.85,2.12,5.08,2.92
		s2.28,1.81,3.17,3.06c0.89,1.25,1.33,2.74,1.33,4.46c0,1.92-0.56,3.66-1.69,5.22c-1.13,1.56-2.68,2.8-4.64,3.71
		c-1.97,0.91-4.18,1.37-6.62,1.37c-2.21,0-4.36-0.28-6.44-0.83s-3.54-1.16-4.36-1.84c-0.38-0.24-0.58-0.74-0.58-1.51l-0.36-8.14
		c0-0.19,0.12-0.31,0.36-0.36c0.24-0.05,0.41,0.02,0.5,0.22c1.82,3.17,3.67,5.76,5.54,7.78c1.87,2.02,4.01,3.02,6.41,3.02
		c1.44,0,2.64-0.43,3.6-1.3c0.96-0.86,1.44-2.16,1.44-3.89c0-1.54-0.4-2.88-1.19-4.03c-0.79-1.15-1.76-2.12-2.92-2.92
		c-1.15-0.79-2.69-1.72-4.61-2.77c-2.83-1.54-4.99-2.99-6.48-4.36c-1.49-1.37-2.23-3.16-2.23-5.36c0-2.78,1.22-5,3.67-6.66
		c2.45-1.66,5.4-2.48,8.86-2.48c1.54,0,3.14,0.17,4.82,0.5c1.68,0.34,3.02,0.72,4.03,1.15c0.43,0.14,0.72,0.32,0.86,0.54
		c0.14,0.22,0.22,0.52,0.22,0.9v6.84c0,0.14-0.12,0.25-0.36,0.32c-0.24,0.07-0.41,0.04-0.5-0.11c-0.91-1.92-2.18-3.82-3.82-5.69
		c-1.63-1.87-3.79-2.81-6.48-2.81c-1.63,0-2.86,0.42-3.67,1.26c-0.82,0.84-1.22,1.93-1.22,3.28
		C276.44,26.08,276.82,27.24,277.56,28.23z"/>
</g>
<line class="st0" x1="0" y1="64.66" x2="307" y2="64.66"/>
<line class="st1" x1="-0.5" y1="68.16" x2="308" y2="68.16"/>
</svg>
